# xmcd
#
# Track frame offsets:
#	150
#	21120
#	36975
#	52039
#	69335
#	81135
#	107392
#	133717
#	163017
#	178827
#
# Disc length: 2662 seconds
#
# Revision: 1
# Processed by: cddbd v1.4PL0 Copyright (c) Steve Scherf et al.
# Submitted via: audiograbber 1.81.02
#
DISCID=810a640a
DTITLE=Jazziz - August 2003
DYEAR=2003
DGENRE=Blues
TTITLE0=Berklee College of Music Bruce Katz Band - Switchin
TTITLE1=Otis Taylor - Rosa, Rosa
TTITLE2=Jon Cleary and the Absolute Monster Gentlemen - So Damn Good
TTITLE3=Tab Benoit - Solid Simple Thing
TTITLE4=Lead Belly featuring the Golden Gate Quartet - Rock Island Line
TTITLE5=Etta James - Somebody To Love
TTITLE6=Henry Butler - The Game Has Just Begun
TTITLE7=Eric Sardinas - Liar's Dice Blues
TTITLE8=Shane Henry - 40 Days and 40 Nights
TTITLE9=Taj Mahal and the Hula Blues - Stagger Lee
EXTD=Album also titled "Summertime Blues"
EXTT0=
EXTT1=
EXTT2=
EXTT3=
EXTT4=
EXTT5=
EXTT6=
EXTT7=
EXTT8=
EXTT9=
PLAYORDER=
